<?xml version="1.0" encoding="utf-8" standalone="no"?>
<!DOCTYPE svg PUBLIC "-//W3C//DTD SVG 1.1//EN"
  "http://www.w3.org/Graphics/SVG/1.1/DTD/svg11.dtd">
<svg xmlns:xlink="http://www.w3.org/1999/xlink" width="230.15952pt" height="140.779473pt" viewBox="0 0 230.15952 140.779473" xmlns="http://www.w3.org/2000/svg" version="1.1">
 <metadata>
  <rdf:RDF xmlns:dc="http://purl.org/dc/elements/1.1/" xmlns:cc="http://creativecommons.org/ns#" xmlns:rdf="http://www.w3.org/1999/02/22-rdf-syntax-ns#">
   <cc:Work>
    <dc:type rdf:resource="http://purl.org/dc/dcmitype/StillImage"/>
    <dc:date>2024-01-26T16:40:53.957550</dc:date>
    <dc:format>image/svg+xml</dc:format>
    <dc:creator>
     <cc:Agent>
      <dc:title>Matplotlib v3.8.2, https://matplotlib.org/</dc:title>
     </cc:Agent>
    </dc:creator>
   </cc:Work>
  </rdf:RDF>
 </metadata>
 <defs>
  <style type="text/css">*{stroke-linejoin: round; stroke-linecap: butt}</style>
 </defs>
 <g id="figure_1">
  <g id="patch_1">
   <path d="M 0 140.779473 
L 230.15952 140.779473 
L 230.15952 0 
L 0 0 
z
" style="fill: #ffffff"/>
  </g>
  <g id="axes_1">
   <g id="patch_2">
    <path d="M 1.08 115.150098 
L 229.07952 115.150098 
L 229.07952 23.965625 
L 1.08 23.965625 
z
" style="fill: #ffffff"/>
   </g>
   <g id="axes_2">
    <g id="patch_3">
     <path d="M 1.08 23.965625 
L 229.07952 23.965625 
L 229.07952 23.965625 
L 1.08 23.965625 
z
" style="fill: #ffffff"/>
    </g>
    <g id="matplotlib.axis_1">
     <g id="xtick_1">
      <g id="line2d_1">
       <defs>
        <path id="m4468a6a86e" d="M 0 0 
L 0 -3.5 
" style="stroke: #000000; stroke-width: 0.8"/>
       </defs>
       <g>
        <use xlink:href="#m4468a6a86e" x="218.715905" y="23.965625" style="stroke: #000000; stroke-width: 0.8"/>
       </g>
      </g>
      <g id="text_1">
       <!-- 0% -->
       <g transform="translate(213.956687 15.717812) scale(0.06 -0.06)">
        <defs>
         <path id="DejaVuSans-30" d="M 2034 4250 
Q 1547 4250 1301 3770 
Q 1056 3291 1056 2328 
Q 1056 1369 1301 889 
Q 1547 409 2034 409 
Q 2525 409 2770 889 
Q 3016 1369 3016 2328 
Q 3016 3291 2770 3770 
Q 2525 4250 2034 4250 
z
M 2034 4750 
Q 2819 4750 3233 4129 
Q 3647 3509 3647 2328 
Q 3647 1150 3233 529 
Q 2819 -91 2034 -91 
Q 1250 -91 836 529 
Q 422 1150 422 2328 
Q 422 3509 836 4129 
Q 1250 4750 2034 4750 
z
" transform="scale(0.015625)"/>
         <path id="DejaVuSans-25" d="M 4653 2053 
Q 4381 2053 4226 1822 
Q 4072 1591 4072 1178 
Q 4072 772 4226 539 
Q 4381 306 4653 306 
Q 4919 306 5073 539 
Q 5228 772 5228 1178 
Q 5228 1588 5073 1820 
Q 4919 2053 4653 2053 
z
M 4653 2450 
Q 5147 2450 5437 2106 
Q 5728 1763 5728 1178 
Q 5728 594 5436 251 
Q 5144 -91 4653 -91 
Q 4153 -91 3862 251 
Q 3572 594 3572 1178 
Q 3572 1766 3864 2108 
Q 4156 2450 4653 2450 
z
M 1428 4353 
Q 1159 4353 1004 4120 
Q 850 3888 850 3481 
Q 850 3069 1003 2837 
Q 1156 2606 1428 2606 
Q 1700 2606 1854 2837 
Q 2009 3069 2009 3481 
Q 2009 3884 1853 4118 
Q 1697 4353 1428 4353 
z
M 4250 4750 
L 4750 4750 
L 1831 -91 
L 1331 -91 
L 4250 4750 
z
M 1428 4750 
Q 1922 4750 2215 4408 
Q 2509 4066 2509 3481 
Q 2509 2891 2217 2550 
Q 1925 2209 1428 2209 
Q 931 2209 642 2551 
Q 353 2894 353 3481 
Q 353 4063 643 4406 
Q 934 4750 1428 4750 
z
" transform="scale(0.015625)"/>
        </defs>
        <use xlink:href="#DejaVuSans-30"/>
        <use xlink:href="#DejaVuSans-25" x="63.623047"/>
       </g>
      </g>
     </g>
     <g id="xtick_2">
      <g id="line2d_2">
       <g>
        <use xlink:href="#m4468a6a86e" x="177.261447" y="23.965625" style="stroke: #000000; stroke-width: 0.8"/>
       </g>
      </g>
      <g id="text_2">
       <!-- 20% -->
       <g transform="translate(170.593479 15.717812) scale(0.06 -0.06)">
        <defs>
         <path id="DejaVuSans-32" d="M 1228 531 
L 3431 531 
L 3431 0 
L 469 0 
L 469 531 
Q 828 903 1448 1529 
Q 2069 2156 2228 2338 
Q 2531 2678 2651 2914 
Q 2772 3150 2772 3378 
Q 2772 3750 2511 3984 
Q 2250 4219 1831 4219 
Q 1534 4219 1204 4116 
Q 875 4013 500 3803 
L 500 4441 
Q 881 4594 1212 4672 
Q 1544 4750 1819 4750 
Q 2544 4750 2975 4387 
Q 3406 4025 3406 3419 
Q 3406 3131 3298 2873 
Q 3191 2616 2906 2266 
Q 2828 2175 2409 1742 
Q 1991 1309 1228 531 
z
" transform="scale(0.015625)"/>
        </defs>
        <use xlink:href="#DejaVuSans-32"/>
        <use xlink:href="#DejaVuSans-30" x="63.623047"/>
        <use xlink:href="#DejaVuSans-25" x="127.246094"/>
       </g>
      </g>
     </g>
     <g id="xtick_3">
      <g id="line2d_3">
       <g>
        <use xlink:href="#m4468a6a86e" x="135.806989" y="23.965625" style="stroke: #000000; stroke-width: 0.8"/>
       </g>
      </g>
      <g id="text_3">
       <!-- 40% -->
       <g transform="translate(129.13902 15.717812) scale(0.06 -0.06)">
        <defs>
         <path id="DejaVuSans-34" d="M 2419 4116 
L 825 1625 
L 2419 1625 
L 2419 4116 
z
M 2253 4666 
L 3047 4666 
L 3047 1625 
L 3713 1625 
L 3713 1100 
L 3047 1100 
L 3047 0 
L 2419 0 
L 2419 1100 
L 313 1100 
L 313 1709 
L 2253 4666 
z
" transform="scale(0.015625)"/>
        </defs>
        <use xlink:href="#DejaVuSans-34"/>
        <use xlink:href="#DejaVuSans-30" x="63.623047"/>
        <use xlink:href="#DejaVuSans-25" x="127.246094"/>
       </g>
      </g>
     </g>
     <g id="xtick_4">
      <g id="line2d_4">
       <g>
        <use xlink:href="#m4468a6a86e" x="94.352531" y="23.965625" style="stroke: #000000; stroke-width: 0.8"/>
       </g>
      </g>
      <g id="text_4">
       <!-- 60% -->
       <g transform="translate(87.684562 15.717812) scale(0.06 -0.06)">
        <defs>
         <path id="DejaVuSans-36" d="M 2113 2584 
Q 1688 2584 1439 2293 
Q 1191 2003 1191 1497 
Q 1191 994 1439 701 
Q 1688 409 2113 409 
Q 2538 409 2786 701 
Q 3034 994 3034 1497 
Q 3034 2003 2786 2293 
Q 2538 2584 2113 2584 
z
M 3366 4563 
L 3366 3988 
Q 3128 4100 2886 4159 
Q 2644 4219 2406 4219 
Q 1781 4219 1451 3797 
Q 1122 3375 1075 2522 
Q 1259 2794 1537 2939 
Q 1816 3084 2150 3084 
Q 2853 3084 3261 2657 
Q 3669 2231 3669 1497 
Q 3669 778 3244 343 
Q 2819 -91 2113 -91 
Q 1303 -91 875 529 
Q 447 1150 447 2328 
Q 447 3434 972 4092 
Q 1497 4750 2381 4750 
Q 2619 4750 2861 4703 
Q 3103 4656 3366 4563 
z
" transform="scale(0.015625)"/>
        </defs>
        <use xlink:href="#DejaVuSans-36"/>
        <use xlink:href="#DejaVuSans-30" x="63.623047"/>
        <use xlink:href="#DejaVuSans-25" x="127.246094"/>
       </g>
      </g>
     </g>
     <g id="xtick_5">
      <g id="line2d_5">
       <g>
        <use xlink:href="#m4468a6a86e" x="52.898073" y="23.965625" style="stroke: #000000; stroke-width: 0.8"/>
       </g>
      </g>
      <g id="text_5">
       <!-- 80% -->
       <g transform="translate(46.230104 15.717812) scale(0.06 -0.06)">
        <defs>
         <path id="DejaVuSans-38" d="M 2034 2216 
Q 1584 2216 1326 1975 
Q 1069 1734 1069 1313 
Q 1069 891 1326 650 
Q 1584 409 2034 409 
Q 2484 409 2743 651 
Q 3003 894 3003 1313 
Q 3003 1734 2745 1975 
Q 2488 2216 2034 2216 
z
M 1403 2484 
Q 997 2584 770 2862 
Q 544 3141 544 3541 
Q 544 4100 942 4425 
Q 1341 4750 2034 4750 
Q 2731 4750 3128 4425 
Q 3525 4100 3525 3541 
Q 3525 3141 3298 2862 
Q 3072 2584 2669 2484 
Q 3125 2378 3379 2068 
Q 3634 1759 3634 1313 
Q 3634 634 3220 271 
Q 2806 -91 2034 -91 
Q 1263 -91 848 271 
Q 434 634 434 1313 
Q 434 1759 690 2068 
Q 947 2378 1403 2484 
z
M 1172 3481 
Q 1172 3119 1398 2916 
Q 1625 2713 2034 2713 
Q 2441 2713 2670 2916 
Q 2900 3119 2900 3481 
Q 2900 3844 2670 4047 
Q 2441 4250 2034 4250 
Q 1625 4250 1398 4047 
Q 1172 3844 1172 3481 
z
" transform="scale(0.015625)"/>
        </defs>
        <use xlink:href="#DejaVuSans-38"/>
        <use xlink:href="#DejaVuSans-30" x="63.623047"/>
        <use xlink:href="#DejaVuSans-25" x="127.246094"/>
       </g>
      </g>
     </g>
     <g id="xtick_6">
      <g id="line2d_6">
       <g>
        <use xlink:href="#m4468a6a86e" x="11.443615" y="23.965625" style="stroke: #000000; stroke-width: 0.8"/>
       </g>
      </g>
      <g id="text_6">
       <!-- 100% -->
       <g transform="translate(2.866896 15.717812) scale(0.06 -0.06)">
        <defs>
         <path id="DejaVuSans-31" d="M 794 531 
L 1825 531 
L 1825 4091 
L 703 3866 
L 703 4441 
L 1819 4666 
L 2450 4666 
L 2450 531 
L 3481 531 
L 3481 0 
L 794 0 
L 794 531 
z
" transform="scale(0.015625)"/>
        </defs>
        <use xlink:href="#DejaVuSans-31"/>
        <use xlink:href="#DejaVuSans-30" x="63.623047"/>
        <use xlink:href="#DejaVuSans-30" x="127.246094"/>
        <use xlink:href="#DejaVuSans-25" x="190.869141"/>
       </g>
      </g>
     </g>
     <g id="text_7">
      <!-- assignment to component A -->
      <g transform="translate(58.61976 7.15875) scale(0.08 -0.08)">
       <defs>
        <path id="DejaVuSans-61" d="M 2194 1759 
Q 1497 1759 1228 1600 
Q 959 1441 959 1056 
Q 959 750 1161 570 
Q 1363 391 1709 391 
Q 2188 391 2477 730 
Q 2766 1069 2766 1631 
L 2766 1759 
L 2194 1759 
z
M 3341 1997 
L 3341 0 
L 2766 0 
L 2766 531 
Q 2569 213 2275 61 
Q 1981 -91 1556 -91 
Q 1019 -91 701 211 
Q 384 513 384 1019 
Q 384 1609 779 1909 
Q 1175 2209 1959 2209 
L 2766 2209 
L 2766 2266 
Q 2766 2663 2505 2880 
Q 2244 3097 1772 3097 
Q 1472 3097 1187 3025 
Q 903 2953 641 2809 
L 641 3341 
Q 956 3463 1253 3523 
Q 1550 3584 1831 3584 
Q 2591 3584 2966 3190 
Q 3341 2797 3341 1997 
z
" transform="scale(0.015625)"/>
        <path id="DejaVuSans-73" d="M 2834 3397 
L 2834 2853 
Q 2591 2978 2328 3040 
Q 2066 3103 1784 3103 
Q 1356 3103 1142 2972 
Q 928 2841 928 2578 
Q 928 2378 1081 2264 
Q 1234 2150 1697 2047 
L 1894 2003 
Q 2506 1872 2764 1633 
Q 3022 1394 3022 966 
Q 3022 478 2636 193 
Q 2250 -91 1575 -91 
Q 1294 -91 989 -36 
Q 684 19 347 128 
L 347 722 
Q 666 556 975 473 
Q 1284 391 1588 391 
Q 1994 391 2212 530 
Q 2431 669 2431 922 
Q 2431 1156 2273 1281 
Q 2116 1406 1581 1522 
L 1381 1569 
Q 847 1681 609 1914 
Q 372 2147 372 2553 
Q 372 3047 722 3315 
Q 1072 3584 1716 3584 
Q 2034 3584 2315 3537 
Q 2597 3491 2834 3397 
z
" transform="scale(0.015625)"/>
        <path id="DejaVuSans-69" d="M 603 3500 
L 1178 3500 
L 1178 0 
L 603 0 
L 603 3500 
z
M 603 4863 
L 1178 4863 
L 1178 4134 
L 603 4134 
L 603 4863 
z
" transform="scale(0.015625)"/>
        <path id="DejaVuSans-67" d="M 2906 1791 
Q 2906 2416 2648 2759 
Q 2391 3103 1925 3103 
Q 1463 3103 1205 2759 
Q 947 2416 947 1791 
Q 947 1169 1205 825 
Q 1463 481 1925 481 
Q 2391 481 2648 825 
Q 2906 1169 2906 1791 
z
M 3481 434 
Q 3481 -459 3084 -895 
Q 2688 -1331 1869 -1331 
Q 1566 -1331 1297 -1286 
Q 1028 -1241 775 -1147 
L 775 -588 
Q 1028 -725 1275 -790 
Q 1522 -856 1778 -856 
Q 2344 -856 2625 -561 
Q 2906 -266 2906 331 
L 2906 616 
Q 2728 306 2450 153 
Q 2172 0 1784 0 
Q 1141 0 747 490 
Q 353 981 353 1791 
Q 353 2603 747 3093 
Q 1141 3584 1784 3584 
Q 2172 3584 2450 3431 
Q 2728 3278 2906 2969 
L 2906 3500 
L 3481 3500 
L 3481 434 
z
" transform="scale(0.015625)"/>
        <path id="DejaVuSans-6e" d="M 3513 2113 
L 3513 0 
L 2938 0 
L 2938 2094 
Q 2938 2591 2744 2837 
Q 2550 3084 2163 3084 
Q 1697 3084 1428 2787 
Q 1159 2491 1159 1978 
L 1159 0 
L 581 0 
L 581 3500 
L 1159 3500 
L 1159 2956 
Q 1366 3272 1645 3428 
Q 1925 3584 2291 3584 
Q 2894 3584 3203 3211 
Q 3513 2838 3513 2113 
z
" transform="scale(0.015625)"/>
        <path id="DejaVuSans-6d" d="M 3328 2828 
Q 3544 3216 3844 3400 
Q 4144 3584 4550 3584 
Q 5097 3584 5394 3201 
Q 5691 2819 5691 2113 
L 5691 0 
L 5113 0 
L 5113 2094 
Q 5113 2597 4934 2840 
Q 4756 3084 4391 3084 
Q 3944 3084 3684 2787 
Q 3425 2491 3425 1978 
L 3425 0 
L 2847 0 
L 2847 2094 
Q 2847 2600 2669 2842 
Q 2491 3084 2119 3084 
Q 1678 3084 1418 2786 
Q 1159 2488 1159 1978 
L 1159 0 
L 581 0 
L 581 3500 
L 1159 3500 
L 1159 2956 
Q 1356 3278 1631 3431 
Q 1906 3584 2284 3584 
Q 2666 3584 2933 3390 
Q 3200 3197 3328 2828 
z
" transform="scale(0.015625)"/>
        <path id="DejaVuSans-65" d="M 3597 1894 
L 3597 1613 
L 953 1613 
Q 991 1019 1311 708 
Q 1631 397 2203 397 
Q 2534 397 2845 478 
Q 3156 559 3463 722 
L 3463 178 
Q 3153 47 2828 -22 
Q 2503 -91 2169 -91 
Q 1331 -91 842 396 
Q 353 884 353 1716 
Q 353 2575 817 3079 
Q 1281 3584 2069 3584 
Q 2775 3584 3186 3129 
Q 3597 2675 3597 1894 
z
M 3022 2063 
Q 3016 2534 2758 2815 
Q 2500 3097 2075 3097 
Q 1594 3097 1305 2825 
Q 1016 2553 972 2059 
L 3022 2063 
z
" transform="scale(0.015625)"/>
        <path id="DejaVuSans-74" d="M 1172 4494 
L 1172 3500 
L 2356 3500 
L 2356 3053 
L 1172 3053 
L 1172 1153 
Q 1172 725 1289 603 
Q 1406 481 1766 481 
L 2356 481 
L 2356 0 
L 1766 0 
Q 1100 0 847 248 
Q 594 497 594 1153 
L 594 3053 
L 172 3053 
L 172 3500 
L 594 3500 
L 594 4494 
L 1172 4494 
z
" transform="scale(0.015625)"/>
        <path id="DejaVuSans-20" transform="scale(0.015625)"/>
        <path id="DejaVuSans-6f" d="M 1959 3097 
Q 1497 3097 1228 2736 
Q 959 2375 959 1747 
Q 959 1119 1226 758 
Q 1494 397 1959 397 
Q 2419 397 2687 759 
Q 2956 1122 2956 1747 
Q 2956 2369 2687 2733 
Q 2419 3097 1959 3097 
z
M 1959 3584 
Q 2709 3584 3137 3096 
Q 3566 2609 3566 1747 
Q 3566 888 3137 398 
Q 2709 -91 1959 -91 
Q 1206 -91 779 398 
Q 353 888 353 1747 
Q 353 2609 779 3096 
Q 1206 3584 1959 3584 
z
" transform="scale(0.015625)"/>
        <path id="DejaVuSans-63" d="M 3122 3366 
L 3122 2828 
Q 2878 2963 2633 3030 
Q 2388 3097 2138 3097 
Q 1578 3097 1268 2742 
Q 959 2388 959 1747 
Q 959 1106 1268 751 
Q 1578 397 2138 397 
Q 2388 397 2633 464 
Q 2878 531 3122 666 
L 3122 134 
Q 2881 22 2623 -34 
Q 2366 -91 2075 -91 
Q 1284 -91 818 406 
Q 353 903 353 1747 
Q 353 2603 823 3093 
Q 1294 3584 2113 3584 
Q 2378 3584 2631 3529 
Q 2884 3475 3122 3366 
z
" transform="scale(0.015625)"/>
        <path id="DejaVuSans-70" d="M 1159 525 
L 1159 -1331 
L 581 -1331 
L 581 3500 
L 1159 3500 
L 1159 2969 
Q 1341 3281 1617 3432 
Q 1894 3584 2278 3584 
Q 2916 3584 3314 3078 
Q 3713 2572 3713 1747 
Q 3713 922 3314 415 
Q 2916 -91 2278 -91 
Q 1894 -91 1617 61 
Q 1341 213 1159 525 
z
M 3116 1747 
Q 3116 2381 2855 2742 
Q 2594 3103 2138 3103 
Q 1681 3103 1420 2742 
Q 1159 2381 1159 1747 
Q 1159 1113 1420 752 
Q 1681 391 2138 391 
Q 2594 391 2855 752 
Q 3116 1113 3116 1747 
z
" transform="scale(0.015625)"/>
        <path id="DejaVuSans-41" d="M 2188 4044 
L 1331 1722 
L 3047 1722 
L 2188 4044 
z
M 1831 4666 
L 2547 4666 
L 4325 0 
L 3669 0 
L 3244 1197 
L 1141 1197 
L 716 0 
L 50 0 
L 1831 4666 
z
" transform="scale(0.015625)"/>
       </defs>
       <use xlink:href="#DejaVuSans-61"/>
       <use xlink:href="#DejaVuSans-73" x="61.279297"/>
       <use xlink:href="#DejaVuSans-73" x="113.378906"/>
       <use xlink:href="#DejaVuSans-69" x="165.478516"/>
       <use xlink:href="#DejaVuSans-67" x="193.261719"/>
       <use xlink:href="#DejaVuSans-6e" x="256.738281"/>
       <use xlink:href="#DejaVuSans-6d" x="320.117188"/>
       <use xlink:href="#DejaVuSans-65" x="417.529297"/>
       <use xlink:href="#DejaVuSans-6e" x="479.052734"/>
       <use xlink:href="#DejaVuSans-74" x="542.431641"/>
       <use xlink:href="#DejaVuSans-20" x="581.640625"/>
       <use xlink:href="#DejaVuSans-74" x="613.427734"/>
       <use xlink:href="#DejaVuSans-6f" x="652.636719"/>
       <use xlink:href="#DejaVuSans-20" x="713.818359"/>
       <use xlink:href="#DejaVuSans-63" x="745.605469"/>
       <use xlink:href="#DejaVuSans-6f" x="800.585938"/>
       <use xlink:href="#DejaVuSans-6d" x="861.767578"/>
       <use xlink:href="#DejaVuSans-70" x="959.179688"/>
       <use xlink:href="#DejaVuSans-6f" x="1022.65625"/>
       <use xlink:href="#DejaVuSans-6e" x="1083.837891"/>
       <use xlink:href="#DejaVuSans-65" x="1147.216797"/>
       <use xlink:href="#DejaVuSans-6e" x="1208.740234"/>
       <use xlink:href="#DejaVuSans-74" x="1272.119141"/>
       <use xlink:href="#DejaVuSans-20" x="1311.328125"/>
       <use xlink:href="#DejaVuSans-41" x="1343.115234"/>
      </g>
     </g>
    </g>
    <g id="matplotlib.axis_2"/>
    <g id="patch_4">
     <path d="M 229.07952 23.965625 
L 1.08 23.965625 
" style="fill: none; stroke: #000000; stroke-width: 0.8; stroke-linejoin: miter; stroke-linecap: square"/>
    </g>
   </g>
   <g id="matplotlib.axis_3">
    <g id="xtick_7">
     <g id="line2d_7">
      <path d="M 11.443615 115.150098 
L 11.443615 23.965625 
" clip-path="url(#pe33363ee3e)" style="fill: none; stroke-dasharray: 0.8,1.32; stroke-dashoffset: 0; stroke: #c5d5db; stroke-opacity: 0.5; stroke-width: 0.8"/>
     </g>
     <g id="line2d_8">
      <defs>
       <path id="m0600461582" d="M 0 0 
L 0 3.5 
" style="stroke: #000000; stroke-width: 0.8"/>
      </defs>
      <g>
       <use xlink:href="#m0600461582" x="11.443615" y="115.150098" style="stroke: #000000; stroke-width: 0.8"/>
      </g>
     </g>
     <g id="text_8">
      <!-- 0% -->
      <g transform="translate(6.684396 126.709161) scale(0.06 -0.06)">
       <use xlink:href="#DejaVuSans-30"/>
       <use xlink:href="#DejaVuSans-25" x="63.623047"/>
      </g>
     </g>
    </g>
    <g id="xtick_8">
     <g id="line2d_9">
      <path d="M 52.898073 115.150098 
L 52.898073 23.965625 
" clip-path="url(#pe33363ee3e)" style="fill: none; stroke-dasharray: 0.8,1.32; stroke-dashoffset: 0; stroke: #c5d5db; stroke-opacity: 0.5; stroke-width: 0.8"/>
     </g>
     <g id="line2d_10">
      <g>
       <use xlink:href="#m0600461582" x="52.898073" y="115.150098" style="stroke: #000000; stroke-width: 0.8"/>
      </g>
     </g>
     <g id="text_9">
      <!-- 20% -->
      <g transform="translate(46.230104 126.709161) scale(0.06 -0.06)">
       <use xlink:href="#DejaVuSans-32"/>
       <use xlink:href="#DejaVuSans-30" x="63.623047"/>
       <use xlink:href="#DejaVuSans-25" x="127.246094"/>
      </g>
     </g>
    </g>
    <g id="xtick_9">
     <g id="line2d_11">
      <path d="M 94.352531 115.150098 
L 94.352531 23.965625 
" clip-path="url(#pe33363ee3e)" style="fill: none; stroke-dasharray: 0.8,1.32; stroke-dashoffset: 0; stroke: #c5d5db; stroke-opacity: 0.5; stroke-width: 0.8"/>
     </g>
     <g id="line2d_12">
      <g>
       <use xlink:href="#m0600461582" x="94.352531" y="115.150098" style="stroke: #000000; stroke-width: 0.8"/>
      </g>
     </g>
     <g id="text_10">
      <!-- 40% -->
      <g transform="translate(87.684562 126.709161) scale(0.06 -0.06)">
       <use xlink:href="#DejaVuSans-34"/>
       <use xlink:href="#DejaVuSans-30" x="63.623047"/>
       <use xlink:href="#DejaVuSans-25" x="127.246094"/>
      </g>
     </g>
    </g>
    <g id="xtick_10">
     <g id="line2d_13">
      <path d="M 135.806989 115.150098 
L 135.806989 23.965625 
" clip-path="url(#pe33363ee3e)" style="fill: none; stroke-dasharray: 0.8,1.32; stroke-dashoffset: 0; stroke: #c5d5db; stroke-opacity: 0.5; stroke-width: 0.8"/>
     </g>
     <g id="line2d_14">
      <g>
       <use xlink:href="#m0600461582" x="135.806989" y="115.150098" style="stroke: #000000; stroke-width: 0.8"/>
      </g>
     </g>
     <g id="text_11">
      <!-- 60% -->
      <g transform="translate(129.13902 126.709161) scale(0.06 -0.06)">
       <use xlink:href="#DejaVuSans-36"/>
       <use xlink:href="#DejaVuSans-30" x="63.623047"/>
       <use xlink:href="#DejaVuSans-25" x="127.246094"/>
      </g>
     </g>
    </g>
    <g id="xtick_11">
     <g id="line2d_15">
      <path d="M 177.261447 115.150098 
L 177.261447 23.965625 
" clip-path="url(#pe33363ee3e)" style="fill: none; stroke-dasharray: 0.8,1.32; stroke-dashoffset: 0; stroke: #c5d5db; stroke-opacity: 0.5; stroke-width: 0.8"/>
     </g>
     <g id="line2d_16">
      <g>
       <use xlink:href="#m0600461582" x="177.261447" y="115.150098" style="stroke: #000000; stroke-width: 0.8"/>
      </g>
     </g>
     <g id="text_12">
      <!-- 80% -->
      <g transform="translate(170.593479 126.709161) scale(0.06 -0.06)">
       <use xlink:href="#DejaVuSans-38"/>
       <use xlink:href="#DejaVuSans-30" x="63.623047"/>
       <use xlink:href="#DejaVuSans-25" x="127.246094"/>
      </g>
     </g>
    </g>
    <g id="xtick_12">
     <g id="line2d_17">
      <path d="M 218.715905 115.150098 
L 218.715905 23.965625 
" clip-path="url(#pe33363ee3e)" style="fill: none; stroke-dasharray: 0.8,1.32; stroke-dashoffset: 0; stroke: #c5d5db; stroke-opacity: 0.5; stroke-width: 0.8"/>
     </g>
     <g id="line2d_18">
      <g>
       <use xlink:href="#m0600461582" x="218.715905" y="115.150098" style="stroke: #000000; stroke-width: 0.8"/>
      </g>
     </g>
     <g id="text_13">
      <!-- 100% -->
      <g transform="translate(210.139187 126.709161) scale(0.06 -0.06)">
       <use xlink:href="#DejaVuSans-31"/>
       <use xlink:href="#DejaVuSans-30" x="63.623047"/>
       <use xlink:href="#DejaVuSans-30" x="127.246094"/>
       <use xlink:href="#DejaVuSans-25" x="190.869141"/>
      </g>
     </g>
    </g>
    <g id="text_14">
     <!-- assignment to component B -->
     <g transform="translate(58.611635 138.035723) scale(0.08 -0.08)">
      <defs>
       <path id="DejaVuSans-42" d="M 1259 2228 
L 1259 519 
L 2272 519 
Q 2781 519 3026 730 
Q 3272 941 3272 1375 
Q 3272 1813 3026 2020 
Q 2781 2228 2272 2228 
L 1259 2228 
z
M 1259 4147 
L 1259 2741 
L 2194 2741 
Q 2656 2741 2882 2914 
Q 3109 3088 3109 3444 
Q 3109 3797 2882 3972 
Q 2656 4147 2194 4147 
L 1259 4147 
z
M 628 4666 
L 2241 4666 
Q 2963 4666 3353 4366 
Q 3744 4066 3744 3513 
Q 3744 3084 3544 2831 
Q 3344 2578 2956 2516 
Q 3422 2416 3680 2098 
Q 3938 1781 3938 1306 
Q 3938 681 3513 340 
Q 3088 0 2303 0 
L 628 0 
L 628 4666 
z
" transform="scale(0.015625)"/>
      </defs>
      <use xlink:href="#DejaVuSans-61"/>
      <use xlink:href="#DejaVuSans-73" x="61.279297"/>
      <use xlink:href="#DejaVuSans-73" x="113.378906"/>
      <use xlink:href="#DejaVuSans-69" x="165.478516"/>
      <use xlink:href="#DejaVuSans-67" x="193.261719"/>
      <use xlink:href="#DejaVuSans-6e" x="256.738281"/>
      <use xlink:href="#DejaVuSans-6d" x="320.117188"/>
      <use xlink:href="#DejaVuSans-65" x="417.529297"/>
      <use xlink:href="#DejaVuSans-6e" x="479.052734"/>
      <use xlink:href="#DejaVuSans-74" x="542.431641"/>
      <use xlink:href="#DejaVuSans-20" x="581.640625"/>
      <use xlink:href="#DejaVuSans-74" x="613.427734"/>
      <use xlink:href="#DejaVuSans-6f" x="652.636719"/>
      <use xlink:href="#DejaVuSans-20" x="713.818359"/>
      <use xlink:href="#DejaVuSans-63" x="745.605469"/>
      <use xlink:href="#DejaVuSans-6f" x="800.585938"/>
      <use xlink:href="#DejaVuSans-6d" x="861.767578"/>
      <use xlink:href="#DejaVuSans-70" x="959.179688"/>
      <use xlink:href="#DejaVuSans-6f" x="1022.65625"/>
      <use xlink:href="#DejaVuSans-6e" x="1083.837891"/>
      <use xlink:href="#DejaVuSans-65" x="1147.216797"/>
      <use xlink:href="#DejaVuSans-6e" x="1208.740234"/>
      <use xlink:href="#DejaVuSans-74" x="1272.119141"/>
      <use xlink:href="#DejaVuSans-20" x="1311.328125"/>
      <use xlink:href="#DejaVuSans-42" x="1343.115234"/>
     </g>
    </g>
   </g>
   <g id="matplotlib.axis_4"/>
   <g id="patch_5">
    <path d="M 1.08 115.150098 
L 1.08 23.965625 
" style="fill: none; stroke: #000000; stroke-width: 0.8; stroke-linejoin: miter; stroke-linecap: square"/>
   </g>
   <g id="patch_6">
    <path d="M 229.07952 115.150098 
L 229.07952 23.965625 
" style="fill: none; stroke: #000000; stroke-width: 0.8; stroke-linejoin: miter; stroke-linecap: square"/>
   </g>
   <g id="patch_7">
    <path d="M 1.08 115.150098 
L 229.07952 115.150098 
" style="fill: none; stroke: #000000; stroke-width: 0.8; stroke-linejoin: miter; stroke-linecap: square"/>
   </g>
   <g id="patch_8">
    <path d="M 1.08 23.965625 
L 229.07952 23.965625 
" style="fill: none; stroke: #000000; stroke-width: 0.8; stroke-linejoin: miter; stroke-linecap: square"/>
   </g>
   <g id="patch_9">
    <path d="M 11.443615 52.837867 
Q 11.443615 58.675125 11.443615 64.512382 
" style="fill: none; stroke: #c5d5db; stroke-linecap: round"/>
   </g>
   <g id="text_15">
    <!-- C03 -->
    <g transform="translate(4.876971 39.985992) scale(0.06664 -0.06664)">
     <defs>
      <path id="DejaVuSans-43" d="M 4122 4306 
L 4122 3641 
Q 3803 3938 3442 4084 
Q 3081 4231 2675 4231 
Q 1875 4231 1450 3742 
Q 1025 3253 1025 2328 
Q 1025 1406 1450 917 
Q 1875 428 2675 428 
Q 3081 428 3442 575 
Q 3803 722 4122 1019 
L 4122 359 
Q 3791 134 3420 21 
Q 3050 -91 2638 -91 
Q 1578 -91 968 557 
Q 359 1206 359 2328 
Q 359 3453 968 4101 
Q 1578 4750 2638 4750 
Q 3056 4750 3426 4639 
Q 3797 4528 4122 4306 
z
" transform="scale(0.015625)"/>
      <path id="DejaVuSans-33" d="M 2597 2516 
Q 3050 2419 3304 2112 
Q 3559 1806 3559 1356 
Q 3559 666 3084 287 
Q 2609 -91 1734 -91 
Q 1441 -91 1130 -33 
Q 819 25 488 141 
L 488 750 
Q 750 597 1062 519 
Q 1375 441 1716 441 
Q 2309 441 2620 675 
Q 2931 909 2931 1356 
Q 2931 1769 2642 2001 
Q 2353 2234 1838 2234 
L 1294 2234 
L 1294 2753 
L 1863 2753 
Q 2328 2753 2575 2939 
Q 2822 3125 2822 3475 
Q 2822 3834 2567 4026 
Q 2313 4219 1838 4219 
Q 1578 4219 1281 4162 
Q 984 4106 628 3988 
L 628 4550 
Q 988 4650 1302 4700 
Q 1616 4750 1894 4750 
Q 2613 4750 3031 4423 
Q 3450 4097 3450 3541 
Q 3450 3153 3228 2886 
Q 3006 2619 2597 2516 
z
" transform="scale(0.015625)"/>
     </defs>
     <use xlink:href="#DejaVuSans-43"/>
     <use xlink:href="#DejaVuSans-30" x="69.824219"/>
     <use xlink:href="#DejaVuSans-33" x="133.447266"/>
    </g>
    <!-- (45) -->
    <g transform="translate(4.603643 47.448214) scale(0.06664 -0.06664)">
     <defs>
      <path id="DejaVuSans-28" d="M 1984 4856 
Q 1566 4138 1362 3434 
Q 1159 2731 1159 2009 
Q 1159 1288 1364 580 
Q 1569 -128 1984 -844 
L 1484 -844 
Q 1016 -109 783 600 
Q 550 1309 550 2009 
Q 550 2706 781 3412 
Q 1013 4119 1484 4856 
L 1984 4856 
z
" transform="scale(0.015625)"/>
      <path id="DejaVuSans-35" d="M 691 4666 
L 3169 4666 
L 3169 4134 
L 1269 4134 
L 1269 2991 
Q 1406 3038 1543 3061 
Q 1681 3084 1819 3084 
Q 2600 3084 3056 2656 
Q 3513 2228 3513 1497 
Q 3513 744 3044 326 
Q 2575 -91 1722 -91 
Q 1428 -91 1123 -41 
Q 819 9 494 109 
L 494 744 
Q 775 591 1075 516 
Q 1375 441 1709 441 
Q 2250 441 2565 725 
Q 2881 1009 2881 1497 
Q 2881 1984 2565 2268 
Q 2250 2553 1709 2553 
Q 1456 2553 1204 2497 
Q 953 2441 691 2322 
L 691 4666 
z
" transform="scale(0.015625)"/>
      <path id="DejaVuSans-29" d="M 513 4856 
L 1013 4856 
Q 1481 4119 1714 3412 
Q 1947 2706 1947 2009 
Q 1947 1309 1714 600 
Q 1481 -109 1013 -844 
L 513 -844 
Q 928 -128 1133 580 
Q 1338 1288 1338 2009 
Q 1338 2731 1133 3434 
Q 928 4138 513 4856 
z
" transform="scale(0.015625)"/>
     </defs>
     <use xlink:href="#DejaVuSans-28"/>
     <use xlink:href="#DejaVuSans-34" x="39.013672"/>
     <use xlink:href="#DejaVuSans-35" x="102.636719"/>
     <use xlink:href="#DejaVuSans-29" x="166.259766"/>
    </g>
   </g>
   <g id="patch_10">
    <path d="M 34.588563 86.282351 
Q 34.588563 80.460873 34.588563 74.639395 
" style="fill: none; stroke: #c5d5db; stroke-linecap: round"/>
   </g>
   <g id="text_16">
    <!-- C06 -->
    <g transform="translate(28.02192 95.345204) scale(0.06664 -0.06664)">
     <use xlink:href="#DejaVuSans-43"/>
     <use xlink:href="#DejaVuSans-30" x="69.824219"/>
     <use xlink:href="#DejaVuSans-36" x="133.447266"/>
    </g>
    <!-- (46) -->
    <g transform="translate(27.748592 102.807427) scale(0.06664 -0.06664)">
     <use xlink:href="#DejaVuSans-28"/>
     <use xlink:href="#DejaVuSans-34" x="39.013672"/>
     <use xlink:href="#DejaVuSans-36" x="102.636719"/>
     <use xlink:href="#DejaVuSans-29" x="166.259766"/>
    </g>
   </g>
   <g id="patch_11">
    <path d="M 41.05506 52.834036 
Q 41.05506 57.937353 41.05506 63.04067 
" style="fill: none; stroke: #c5d5db; stroke-linecap: round"/>
   </g>
   <g id="text_17">
    <!-- C04 -->
    <g transform="translate(34.488417 39.985992) scale(0.06664 -0.06664)">
     <use xlink:href="#DejaVuSans-43"/>
     <use xlink:href="#DejaVuSans-30" x="69.824219"/>
     <use xlink:href="#DejaVuSans-34" x="133.447266"/>
    </g>
    <!-- (99) -->
    <g transform="translate(34.215089 47.448214) scale(0.06664 -0.06664)">
     <defs>
      <path id="DejaVuSans-39" d="M 703 97 
L 703 672 
Q 941 559 1184 500 
Q 1428 441 1663 441 
Q 2288 441 2617 861 
Q 2947 1281 2994 2138 
Q 2813 1869 2534 1725 
Q 2256 1581 1919 1581 
Q 1219 1581 811 2004 
Q 403 2428 403 3163 
Q 403 3881 828 4315 
Q 1253 4750 1959 4750 
Q 2769 4750 3195 4129 
Q 3622 3509 3622 2328 
Q 3622 1225 3098 567 
Q 2575 -91 1691 -91 
Q 1453 -91 1209 -44 
Q 966 3 703 97 
z
M 1959 2075 
Q 2384 2075 2632 2365 
Q 2881 2656 2881 3163 
Q 2881 3666 2632 3958 
Q 2384 4250 1959 4250 
Q 1534 4250 1286 3958 
Q 1038 3666 1038 3163 
Q 1038 2656 1286 2365 
Q 1534 2075 1959 2075 
z
" transform="scale(0.015625)"/>
     </defs>
     <use xlink:href="#DejaVuSans-28"/>
     <use xlink:href="#DejaVuSans-39" x="39.013672"/>
     <use xlink:href="#DejaVuSans-39" x="102.636719"/>
     <use xlink:href="#DejaVuSans-29" x="166.259766"/>
    </g>
   </g>
   <g id="patch_12">
    <path d="M 78.817047 86.282748 
Q 78.817047 81.773159 78.817047 77.26357 
" style="fill: none; stroke: #c5d5db; stroke-linecap: round"/>
   </g>
   <g id="text_18">
    <!-- C02 -->
    <g transform="translate(72.250403 95.345204) scale(0.06664 -0.06664)">
     <use xlink:href="#DejaVuSans-43"/>
     <use xlink:href="#DejaVuSans-30" x="69.824219"/>
     <use xlink:href="#DejaVuSans-32" x="133.447266"/>
    </g>
    <!-- (158) -->
    <g transform="translate(69.85709 102.807427) scale(0.06664 -0.06664)">
     <use xlink:href="#DejaVuSans-28"/>
     <use xlink:href="#DejaVuSans-31" x="39.013672"/>
     <use xlink:href="#DejaVuSans-35" x="102.636719"/>
     <use xlink:href="#DejaVuSans-38" x="166.259766"/>
     <use xlink:href="#DejaVuSans-29" x="229.882812"/>
    </g>
   </g>
   <g id="patch_13">
    <path d="M 109.284283 52.833859 
Q 109.284283 58.423841 109.284283 64.013823 
" style="fill: none; stroke: #c5d5db; stroke-linecap: round"/>
   </g>
   <g id="text_19">
    <!-- C05 -->
    <g transform="translate(102.71764 39.985992) scale(0.06664 -0.06664)">
     <use xlink:href="#DejaVuSans-43"/>
     <use xlink:href="#DejaVuSans-30" x="69.824219"/>
     <use xlink:href="#DejaVuSans-35" x="133.447266"/>
    </g>
    <!-- (61) -->
    <g transform="translate(102.444312 47.448214) scale(0.06664 -0.06664)">
     <use xlink:href="#DejaVuSans-28"/>
     <use xlink:href="#DejaVuSans-36" x="39.013672"/>
     <use xlink:href="#DejaVuSans-31" x="102.636719"/>
     <use xlink:href="#DejaVuSans-29" x="166.259766"/>
    </g>
   </g>
   <g id="patch_14">
    <path d="M 173.413286 86.281324 
Q 173.413286 81.870757 173.413286 77.46019 
" style="fill: none; stroke: #c5d5db; stroke-linecap: round"/>
   </g>
   <g id="text_20">
    <!-- C10 -->
    <g transform="translate(166.846643 95.345204) scale(0.06664 -0.06664)">
     <use xlink:href="#DejaVuSans-43"/>
     <use xlink:href="#DejaVuSans-31" x="69.824219"/>
     <use xlink:href="#DejaVuSans-30" x="133.447266"/>
    </g>
    <!-- (169) -->
    <g transform="translate(164.45333 102.807427) scale(0.06664 -0.06664)">
     <use xlink:href="#DejaVuSans-28"/>
     <use xlink:href="#DejaVuSans-31" x="39.013672"/>
     <use xlink:href="#DejaVuSans-36" x="102.636719"/>
     <use xlink:href="#DejaVuSans-39" x="166.259766"/>
     <use xlink:href="#DejaVuSans-29" x="229.882812"/>
    </g>
   </g>
   <g id="patch_15">
    <path d="M 204.890413 52.831865 
Q 204.890413 55.368577 204.890413 57.905288 
" style="fill: none; stroke: #c5d5db; stroke-linecap: round"/>
   </g>
   <g id="text_21">
    <!-- C09 -->
    <g transform="translate(198.32377 39.985992) scale(0.06664 -0.06664)">
     <use xlink:href="#DejaVuSans-43"/>
     <use xlink:href="#DejaVuSans-30" x="69.824219"/>
     <use xlink:href="#DejaVuSans-39" x="133.447266"/>
    </g>
    <!-- (452) -->
    <g transform="translate(195.930457 47.448214) scale(0.06664 -0.06664)">
     <use xlink:href="#DejaVuSans-28"/>
     <use xlink:href="#DejaVuSans-34" x="39.013672"/>
     <use xlink:href="#DejaVuSans-35" x="102.636719"/>
     <use xlink:href="#DejaVuSans-32" x="166.259766"/>
     <use xlink:href="#DejaVuSans-29" x="229.882812"/>
    </g>
   </g>
   <g id="patch_16">
    <path d="M 218.715905 86.277908 
Q 218.715905 82.222873 218.715905 78.167838 
" style="fill: none; stroke: #c5d5db; stroke-linecap: round"/>
   </g>
   <g id="text_22">
    <!-- C01 -->
    <g transform="translate(212.149262 95.345204) scale(0.06664 -0.06664)">
     <use xlink:href="#DejaVuSans-43"/>
     <use xlink:href="#DejaVuSans-30" x="69.824219"/>
     <use xlink:href="#DejaVuSans-31" x="133.447266"/>
    </g>
    <!-- (212) -->
    <g transform="translate(209.755949 102.807427) scale(0.06664 -0.06664)">
     <use xlink:href="#DejaVuSans-28"/>
     <use xlink:href="#DejaVuSans-32" x="39.013672"/>
     <use xlink:href="#DejaVuSans-31" x="102.636719"/>
     <use xlink:href="#DejaVuSans-32" x="166.259766"/>
     <use xlink:href="#DejaVuSans-29" x="229.882812"/>
    </g>
   </g>
   <g id="PathCollection_1">
    <path d="M 218.715905 76.837972 
C 220.646613 76.837972 222.498504 76.070893 223.863721 74.705677 
C 225.228937 73.34046 225.996015 71.488569 225.996015 69.557862 
C 225.996015 67.627154 225.228937 65.775263 223.863721 64.410047 
C 222.498504 63.04483 220.646613 62.277752 218.715905 62.277752 
C 216.785198 62.277752 214.933307 63.04483 213.56809 64.410047 
C 212.202874 65.775263 211.435796 67.627154 211.435796 69.557862 
C 211.435796 71.488569 212.202874 73.34046 213.56809 74.705677 
C 214.933307 76.070893 216.785198 76.837972 218.715905 76.837972 
z
" clip-path="url(#pe33363ee3e)" style="fill: #f17900; fill-opacity: 0.7"/>
    <path d="M 78.817047 75.842764 
C 80.483822 75.842764 82.082555 75.180547 83.261144 74.001959 
C 84.439732 72.823371 85.101949 71.224637 85.101949 69.557862 
C 85.101949 67.891086 84.439732 66.292353 83.261144 65.113764 
C 82.082555 63.935176 80.483822 63.272959 78.817047 63.272959 
C 77.150271 63.272959 75.551538 63.935176 74.372949 65.113764 
C 73.194361 66.292353 72.532144 67.891086 72.532144 69.557862 
C 72.532144 71.224637 73.194361 72.823371 74.372949 74.001959 
C 75.551538 75.180547 77.150271 75.842764 78.817047 75.842764 
z
" clip-path="url(#pe33363ee3e)" style="fill: #005ea8; fill-opacity: 0.7"/>
    <path d="M 11.443615 72.911964 
C 12.333133 72.911964 13.186338 72.558554 13.815323 71.92957 
C 14.444307 71.300586 14.797717 70.44738 14.797717 69.557862 
C 14.797717 68.668343 14.444307 67.815138 13.815323 67.186153 
C 13.186338 66.557169 12.333133 66.20376 11.443615 66.20376 
C 10.554096 66.20376 9.700891 66.557169 9.071906 67.186153 
C 8.442922 67.815138 8.089513 68.668343 8.089513 69.557862 
C 8.089513 70.44738 8.442922 71.300586 9.071906 71.92957 
C 9.700891 72.558554 10.554096 72.911964 11.443615 72.911964 
z
" clip-path="url(#pe33363ee3e)" style="fill: #005ea8; fill-opacity: 0.7"/>
    <path d="M 41.05506 74.532799 
C 42.374429 74.532799 43.639938 74.008608 44.572872 73.075674 
C 45.505807 72.142739 46.029998 70.87723 46.029998 69.557862 
C 46.029998 68.238493 45.505807 66.972984 44.572872 66.04005 
C 43.639938 65.107115 42.374429 64.582925 41.05506 64.582925 
C 39.735692 64.582925 38.470183 65.107115 37.537249 66.04005 
C 36.604314 66.972984 36.080123 68.238493 36.080123 69.557862 
C 36.080123 70.87723 36.604314 72.142739 37.537249 73.075674 
C 38.470183 74.008608 39.735692 74.532799 41.05506 74.532799 
z
" clip-path="url(#pe33363ee3e)" style="fill: #005ea8; fill-opacity: 0.7"/>
    <path d="M 109.284283 73.462987 
C 110.319935 73.462987 111.313308 73.051518 112.045624 72.319202 
C 112.77794 71.586886 113.189408 70.593513 113.189408 69.557862 
C 113.189408 68.52221 112.77794 67.528837 112.045624 66.796521 
C 111.313308 66.064205 110.319935 65.652737 109.284283 65.652737 
C 108.248632 65.652737 107.255259 66.064205 106.522943 66.796521 
C 105.790627 67.528837 105.379159 68.52221 105.379159 69.557862 
C 105.379159 70.593513 105.790627 71.586886 106.522943 72.319202 
C 107.255259 73.051518 108.248632 73.462987 109.284283 73.462987 
z
" clip-path="url(#pe33363ee3e)" style="fill: #005ea8; fill-opacity: 0.7"/>
    <path d="M 34.588563 72.949027 
C 35.487911 72.949027 36.350544 72.591712 36.986479 71.955777 
C 37.622414 71.319843 37.979728 70.457209 37.979728 69.557862 
C 37.979728 68.658514 37.622414 67.795881 36.986479 67.159946 
C 36.350544 66.524011 35.487911 66.166697 34.588563 66.166697 
C 33.689216 66.166697 32.826582 66.524011 32.190647 67.159946 
C 31.554713 67.795881 31.197398 68.658514 31.197398 69.557862 
C 31.197398 70.457209 31.554713 71.319843 32.190647 71.955777 
C 32.826582 72.591712 33.689216 72.949027 34.588563 72.949027 
z
" clip-path="url(#pe33363ee3e)" style="fill: #005ea8; fill-opacity: 0.7"/>
    <path d="M 204.890413 80.188008 
C 207.709561 80.188008 210.413623 79.067948 212.407062 77.07451 
C 214.4005 75.081071 215.520559 72.377009 215.520559 69.557862 
C 215.520559 66.738714 214.4005 64.034652 212.407062 62.041213 
C 210.413623 60.047775 207.709561 58.927716 204.890413 58.927716 
C 202.071266 58.927716 199.367204 60.047775 197.373765 62.041213 
C 195.380327 64.034652 194.260268 66.738714 194.260268 69.557862 
C 194.260268 72.377009 195.380327 75.081071 197.373765 77.07451 
C 199.367204 79.067948 202.071266 80.188008 204.890413 80.188008 
z
" clip-path="url(#pe33363ee3e)" style="fill: #f17900; fill-opacity: 0.7"/>
    <path d="M 173.413286 76.057862 
C 175.137106 76.057862 176.790555 75.372981 178.00948 74.154056 
C 179.228405 72.935131 179.913286 71.281682 179.913286 69.557862 
C 179.913286 67.834042 179.228405 66.180593 178.00948 64.961668 
C 176.790555 63.742743 175.137106 63.057862 173.413286 63.057862 
C 171.689466 63.057862 170.036017 63.742743 168.817092 64.961668 
C 167.598167 66.180593 166.913286 67.834042 166.913286 69.557862 
C 166.913286 71.281682 167.598167 72.935131 168.817092 74.154056 
C 170.036017 75.372981 171.689466 76.057862 173.413286 76.057862 
z
" clip-path="url(#pe33363ee3e)" style="fill: #f17900; fill-opacity: 0.7"/>
   </g>
  </g>
 </g>
 <defs>
  <clipPath id="pe33363ee3e">
   <rect x="1.08" y="23.965625" width="227.99952" height="91.184473"/>
  </clipPath>
 </defs>
</svg>
