<?xml version="1.0" encoding="utf-8" standalone="no"?>
<!DOCTYPE svg PUBLIC "-//W3C//DTD SVG 1.1//EN"
  "http://www.w3.org/Graphics/SVG/1.1/DTD/svg11.dtd">
<svg xmlns:xlink="http://www.w3.org/1999/xlink" width="230.126136pt" height="140.779473pt" viewBox="0 0 230.126136 140.779473" xmlns="http://www.w3.org/2000/svg" version="1.1">
 <metadata>
  <rdf:RDF xmlns:dc="http://purl.org/dc/elements/1.1/" xmlns:cc="http://creativecommons.org/ns#" xmlns:rdf="http://www.w3.org/1999/02/22-rdf-syntax-ns#">
   <cc:Work>
    <dc:type rdf:resource="http://purl.org/dc/dcmitype/StillImage"/>
    <dc:date>2024-01-24T20:26:47.319730</dc:date>
    <dc:format>image/svg+xml</dc:format>
    <dc:creator>
     <cc:Agent>
      <dc:title>Matplotlib v3.8.2, https://matplotlib.org/</dc:title>
     </cc:Agent>
    </dc:creator>
   </cc:Work>
  </rdf:RDF>
 </metadata>
 <defs>
  <style type="text/css">*{stroke-linejoin: round; stroke-linecap: butt}</style>
 </defs>
 <g id="figure_1">
  <g id="patch_1">
   <path d="M 0 140.779473 
L 230.126136 140.779473 
L 230.126136 0 
L 0 0 
z
" style="fill: #ffffff"/>
  </g>
  <g id="axes_1">
   <g id="patch_2">
    <path d="M 26.467188 115.150098 
L 224.709494 115.150098 
L 224.709494 23.965625 
L 26.467188 23.965625 
z
" style="fill: #ffffff"/>
   </g>
   <g id="axes_2">
    <g id="patch_3">
     <path d="M 26.467188 23.965625 
L 224.709494 23.965625 
L 224.709494 23.965625 
L 26.467188 23.965625 
z
" style="fill: #ffffff"/>
    </g>
    <g id="matplotlib.axis_1">
     <g id="xtick_1">
      <g id="line2d_1">
       <defs>
        <path id="me53ab1be94" d="M 0 0 
L 0 -3.5 
" style="stroke: #000000; stroke-width: 0.8"/>
       </defs>
       <g>
        <use xlink:href="#me53ab1be94" x="215.69848" y="23.965625" style="stroke: #000000; stroke-width: 0.8"/>
       </g>
      </g>
      <g id="text_1">
       <!-- 0.0 -->
       <g transform="translate(210.927542 15.717812) scale(0.06 -0.06)">
        <defs>
         <path id="DejaVuSans-30" d="M 2034 4250 
Q 1547 4250 1301 3770 
Q 1056 3291 1056 2328 
Q 1056 1369 1301 889 
Q 1547 409 2034 409 
Q 2525 409 2770 889 
Q 3016 1369 3016 2328 
Q 3016 3291 2770 3770 
Q 2525 4250 2034 4250 
z
M 2034 4750 
Q 2819 4750 3233 4129 
Q 3647 3509 3647 2328 
Q 3647 1150 3233 529 
Q 2819 -91 2034 -91 
Q 1250 -91 836 529 
Q 422 1150 422 2328 
Q 422 3509 836 4129 
Q 1250 4750 2034 4750 
z
" transform="scale(0.015625)"/>
         <path id="DejaVuSans-2e" d="M 684 794 
L 1344 794 
L 1344 0 
L 684 0 
L 684 794 
z
" transform="scale(0.015625)"/>
        </defs>
        <use xlink:href="#DejaVuSans-30"/>
        <use xlink:href="#DejaVuSans-2e" x="63.623047"/>
        <use xlink:href="#DejaVuSans-30" x="95.410156"/>
       </g>
      </g>
     </g>
     <g id="xtick_2">
      <g id="line2d_2">
       <g>
        <use xlink:href="#me53ab1be94" x="179.654424" y="23.965625" style="stroke: #000000; stroke-width: 0.8"/>
       </g>
      </g>
      <g id="text_2">
       <!-- 0.2 -->
       <g transform="translate(174.883487 15.717812) scale(0.06 -0.06)">
        <defs>
         <path id="DejaVuSans-32" d="M 1228 531 
L 3431 531 
L 3431 0 
L 469 0 
L 469 531 
Q 828 903 1448 1529 
Q 2069 2156 2228 2338 
Q 2531 2678 2651 2914 
Q 2772 3150 2772 3378 
Q 2772 3750 2511 3984 
Q 2250 4219 1831 4219 
Q 1534 4219 1204 4116 
Q 875 4013 500 3803 
L 500 4441 
Q 881 4594 1212 4672 
Q 1544 4750 1819 4750 
Q 2544 4750 2975 4387 
Q 3406 4025 3406 3419 
Q 3406 3131 3298 2873 
Q 3191 2616 2906 2266 
Q 2828 2175 2409 1742 
Q 1991 1309 1228 531 
z
" transform="scale(0.015625)"/>
        </defs>
        <use xlink:href="#DejaVuSans-30"/>
        <use xlink:href="#DejaVuSans-2e" x="63.623047"/>
        <use xlink:href="#DejaVuSans-32" x="95.410156"/>
       </g>
      </g>
     </g>
     <g id="xtick_3">
      <g id="line2d_3">
       <g>
        <use xlink:href="#me53ab1be94" x="143.610368" y="23.965625" style="stroke: #000000; stroke-width: 0.8"/>
       </g>
      </g>
      <g id="text_3">
       <!-- 0.4 -->
       <g transform="translate(138.839431 15.717812) scale(0.06 -0.06)">
        <defs>
         <path id="DejaVuSans-34" d="M 2419 4116 
L 825 1625 
L 2419 1625 
L 2419 4116 
z
M 2253 4666 
L 3047 4666 
L 3047 1625 
L 3713 1625 
L 3713 1100 
L 3047 1100 
L 3047 0 
L 2419 0 
L 2419 1100 
L 313 1100 
L 313 1709 
L 2253 4666 
z
" transform="scale(0.015625)"/>
        </defs>
        <use xlink:href="#DejaVuSans-30"/>
        <use xlink:href="#DejaVuSans-2e" x="63.623047"/>
        <use xlink:href="#DejaVuSans-34" x="95.410156"/>
       </g>
      </g>
     </g>
     <g id="xtick_4">
      <g id="line2d_4">
       <g>
        <use xlink:href="#me53ab1be94" x="107.566313" y="23.965625" style="stroke: #000000; stroke-width: 0.8"/>
       </g>
      </g>
      <g id="text_4">
       <!-- 0.6 -->
       <g transform="translate(102.795375 15.717812) scale(0.06 -0.06)">
        <defs>
         <path id="DejaVuSans-36" d="M 2113 2584 
Q 1688 2584 1439 2293 
Q 1191 2003 1191 1497 
Q 1191 994 1439 701 
Q 1688 409 2113 409 
Q 2538 409 2786 701 
Q 3034 994 3034 1497 
Q 3034 2003 2786 2293 
Q 2538 2584 2113 2584 
z
M 3366 4563 
L 3366 3988 
Q 3128 4100 2886 4159 
Q 2644 4219 2406 4219 
Q 1781 4219 1451 3797 
Q 1122 3375 1075 2522 
Q 1259 2794 1537 2939 
Q 1816 3084 2150 3084 
Q 2853 3084 3261 2657 
Q 3669 2231 3669 1497 
Q 3669 778 3244 343 
Q 2819 -91 2113 -91 
Q 1303 -91 875 529 
Q 447 1150 447 2328 
Q 447 3434 972 4092 
Q 1497 4750 2381 4750 
Q 2619 4750 2861 4703 
Q 3103 4656 3366 4563 
z
" transform="scale(0.015625)"/>
        </defs>
        <use xlink:href="#DejaVuSans-30"/>
        <use xlink:href="#DejaVuSans-2e" x="63.623047"/>
        <use xlink:href="#DejaVuSans-36" x="95.410156"/>
       </g>
      </g>
     </g>
     <g id="xtick_5">
      <g id="line2d_5">
       <g>
        <use xlink:href="#me53ab1be94" x="71.522257" y="23.965625" style="stroke: #000000; stroke-width: 0.8"/>
       </g>
      </g>
      <g id="text_5">
       <!-- 0.8 -->
       <g transform="translate(66.75132 15.717812) scale(0.06 -0.06)">
        <defs>
         <path id="DejaVuSans-38" d="M 2034 2216 
Q 1584 2216 1326 1975 
Q 1069 1734 1069 1313 
Q 1069 891 1326 650 
Q 1584 409 2034 409 
Q 2484 409 2743 651 
Q 3003 894 3003 1313 
Q 3003 1734 2745 1975 
Q 2488 2216 2034 2216 
z
M 1403 2484 
Q 997 2584 770 2862 
Q 544 3141 544 3541 
Q 544 4100 942 4425 
Q 1341 4750 2034 4750 
Q 2731 4750 3128 4425 
Q 3525 4100 3525 3541 
Q 3525 3141 3298 2862 
Q 3072 2584 2669 2484 
Q 3125 2378 3379 2068 
Q 3634 1759 3634 1313 
Q 3634 634 3220 271 
Q 2806 -91 2034 -91 
Q 1263 -91 848 271 
Q 434 634 434 1313 
Q 434 1759 690 2068 
Q 947 2378 1403 2484 
z
M 1172 3481 
Q 1172 3119 1398 2916 
Q 1625 2713 2034 2713 
Q 2441 2713 2670 2916 
Q 2900 3119 2900 3481 
Q 2900 3844 2670 4047 
Q 2441 4250 2034 4250 
Q 1625 4250 1398 4047 
Q 1172 3844 1172 3481 
z
" transform="scale(0.015625)"/>
        </defs>
        <use xlink:href="#DejaVuSans-30"/>
        <use xlink:href="#DejaVuSans-2e" x="63.623047"/>
        <use xlink:href="#DejaVuSans-38" x="95.410156"/>
       </g>
      </g>
     </g>
     <g id="xtick_6">
      <g id="line2d_6">
       <g>
        <use xlink:href="#me53ab1be94" x="35.478201" y="23.965625" style="stroke: #000000; stroke-width: 0.8"/>
       </g>
      </g>
      <g id="text_6">
       <!-- 1.0 -->
       <g transform="translate(30.707264 15.717812) scale(0.06 -0.06)">
        <defs>
         <path id="DejaVuSans-31" d="M 794 531 
L 1825 531 
L 1825 4091 
L 703 3866 
L 703 4441 
L 1819 4666 
L 2450 4666 
L 2450 531 
L 3481 531 
L 3481 0 
L 794 0 
L 794 531 
z
" transform="scale(0.015625)"/>
        </defs>
        <use xlink:href="#DejaVuSans-31"/>
        <use xlink:href="#DejaVuSans-2e" x="63.623047"/>
        <use xlink:href="#DejaVuSans-30" x="95.410156"/>
       </g>
      </g>
     </g>
     <g id="text_7">
      <!-- assignment to cluster B [%] -->
      <g transform="translate(69.953341 7.15875) scale(0.08 -0.08)">
       <defs>
        <path id="DejaVuSans-61" d="M 2194 1759 
Q 1497 1759 1228 1600 
Q 959 1441 959 1056 
Q 959 750 1161 570 
Q 1363 391 1709 391 
Q 2188 391 2477 730 
Q 2766 1069 2766 1631 
L 2766 1759 
L 2194 1759 
z
M 3341 1997 
L 3341 0 
L 2766 0 
L 2766 531 
Q 2569 213 2275 61 
Q 1981 -91 1556 -91 
Q 1019 -91 701 211 
Q 384 513 384 1019 
Q 384 1609 779 1909 
Q 1175 2209 1959 2209 
L 2766 2209 
L 2766 2266 
Q 2766 2663 2505 2880 
Q 2244 3097 1772 3097 
Q 1472 3097 1187 3025 
Q 903 2953 641 2809 
L 641 3341 
Q 956 3463 1253 3523 
Q 1550 3584 1831 3584 
Q 2591 3584 2966 3190 
Q 3341 2797 3341 1997 
z
" transform="scale(0.015625)"/>
        <path id="DejaVuSans-73" d="M 2834 3397 
L 2834 2853 
Q 2591 2978 2328 3040 
Q 2066 3103 1784 3103 
Q 1356 3103 1142 2972 
Q 928 2841 928 2578 
Q 928 2378 1081 2264 
Q 1234 2150 1697 2047 
L 1894 2003 
Q 2506 1872 2764 1633 
Q 3022 1394 3022 966 
Q 3022 478 2636 193 
Q 2250 -91 1575 -91 
Q 1294 -91 989 -36 
Q 684 19 347 128 
L 347 722 
Q 666 556 975 473 
Q 1284 391 1588 391 
Q 1994 391 2212 530 
Q 2431 669 2431 922 
Q 2431 1156 2273 1281 
Q 2116 1406 1581 1522 
L 1381 1569 
Q 847 1681 609 1914 
Q 372 2147 372 2553 
Q 372 3047 722 3315 
Q 1072 3584 1716 3584 
Q 2034 3584 2315 3537 
Q 2597 3491 2834 3397 
z
" transform="scale(0.015625)"/>
        <path id="DejaVuSans-69" d="M 603 3500 
L 1178 3500 
L 1178 0 
L 603 0 
L 603 3500 
z
M 603 4863 
L 1178 4863 
L 1178 4134 
L 603 4134 
L 603 4863 
z
" transform="scale(0.015625)"/>
        <path id="DejaVuSans-67" d="M 2906 1791 
Q 2906 2416 2648 2759 
Q 2391 3103 1925 3103 
Q 1463 3103 1205 2759 
Q 947 2416 947 1791 
Q 947 1169 1205 825 
Q 1463 481 1925 481 
Q 2391 481 2648 825 
Q 2906 1169 2906 1791 
z
M 3481 434 
Q 3481 -459 3084 -895 
Q 2688 -1331 1869 -1331 
Q 1566 -1331 1297 -1286 
Q 1028 -1241 775 -1147 
L 775 -588 
Q 1028 -725 1275 -790 
Q 1522 -856 1778 -856 
Q 2344 -856 2625 -561 
Q 2906 -266 2906 331 
L 2906 616 
Q 2728 306 2450 153 
Q 2172 0 1784 0 
Q 1141 0 747 490 
Q 353 981 353 1791 
Q 353 2603 747 3093 
Q 1141 3584 1784 3584 
Q 2172 3584 2450 3431 
Q 2728 3278 2906 2969 
L 2906 3500 
L 3481 3500 
L 3481 434 
z
" transform="scale(0.015625)"/>
        <path id="DejaVuSans-6e" d="M 3513 2113 
L 3513 0 
L 2938 0 
L 2938 2094 
Q 2938 2591 2744 2837 
Q 2550 3084 2163 3084 
Q 1697 3084 1428 2787 
Q 1159 2491 1159 1978 
L 1159 0 
L 581 0 
L 581 3500 
L 1159 3500 
L 1159 2956 
Q 1366 3272 1645 3428 
Q 1925 3584 2291 3584 
Q 2894 3584 3203 3211 
Q 3513 2838 3513 2113 
z
" transform="scale(0.015625)"/>
        <path id="DejaVuSans-6d" d="M 3328 2828 
Q 3544 3216 3844 3400 
Q 4144 3584 4550 3584 
Q 5097 3584 5394 3201 
Q 5691 2819 5691 2113 
L 5691 0 
L 5113 0 
L 5113 2094 
Q 5113 2597 4934 2840 
Q 4756 3084 4391 3084 
Q 3944 3084 3684 2787 
Q 3425 2491 3425 1978 
L 3425 0 
L 2847 0 
L 2847 2094 
Q 2847 2600 2669 2842 
Q 2491 3084 2119 3084 
Q 1678 3084 1418 2786 
Q 1159 2488 1159 1978 
L 1159 0 
L 581 0 
L 581 3500 
L 1159 3500 
L 1159 2956 
Q 1356 3278 1631 3431 
Q 1906 3584 2284 3584 
Q 2666 3584 2933 3390 
Q 3200 3197 3328 2828 
z
" transform="scale(0.015625)"/>
        <path id="DejaVuSans-65" d="M 3597 1894 
L 3597 1613 
L 953 1613 
Q 991 1019 1311 708 
Q 1631 397 2203 397 
Q 2534 397 2845 478 
Q 3156 559 3463 722 
L 3463 178 
Q 3153 47 2828 -22 
Q 2503 -91 2169 -91 
Q 1331 -91 842 396 
Q 353 884 353 1716 
Q 353 2575 817 3079 
Q 1281 3584 2069 3584 
Q 2775 3584 3186 3129 
Q 3597 2675 3597 1894 
z
M 3022 2063 
Q 3016 2534 2758 2815 
Q 2500 3097 2075 3097 
Q 1594 3097 1305 2825 
Q 1016 2553 972 2059 
L 3022 2063 
z
" transform="scale(0.015625)"/>
        <path id="DejaVuSans-74" d="M 1172 4494 
L 1172 3500 
L 2356 3500 
L 2356 3053 
L 1172 3053 
L 1172 1153 
Q 1172 725 1289 603 
Q 1406 481 1766 481 
L 2356 481 
L 2356 0 
L 1766 0 
Q 1100 0 847 248 
Q 594 497 594 1153 
L 594 3053 
L 172 3053 
L 172 3500 
L 594 3500 
L 594 4494 
L 1172 4494 
z
" transform="scale(0.015625)"/>
        <path id="DejaVuSans-20" transform="scale(0.015625)"/>
        <path id="DejaVuSans-6f" d="M 1959 3097 
Q 1497 3097 1228 2736 
Q 959 2375 959 1747 
Q 959 1119 1226 758 
Q 1494 397 1959 397 
Q 2419 397 2687 759 
Q 2956 1122 2956 1747 
Q 2956 2369 2687 2733 
Q 2419 3097 1959 3097 
z
M 1959 3584 
Q 2709 3584 3137 3096 
Q 3566 2609 3566 1747 
Q 3566 888 3137 398 
Q 2709 -91 1959 -91 
Q 1206 -91 779 398 
Q 353 888 353 1747 
Q 353 2609 779 3096 
Q 1206 3584 1959 3584 
z
" transform="scale(0.015625)"/>
        <path id="DejaVuSans-63" d="M 3122 3366 
L 3122 2828 
Q 2878 2963 2633 3030 
Q 2388 3097 2138 3097 
Q 1578 3097 1268 2742 
Q 959 2388 959 1747 
Q 959 1106 1268 751 
Q 1578 397 2138 397 
Q 2388 397 2633 464 
Q 2878 531 3122 666 
L 3122 134 
Q 2881 22 2623 -34 
Q 2366 -91 2075 -91 
Q 1284 -91 818 406 
Q 353 903 353 1747 
Q 353 2603 823 3093 
Q 1294 3584 2113 3584 
Q 2378 3584 2631 3529 
Q 2884 3475 3122 3366 
z
" transform="scale(0.015625)"/>
        <path id="DejaVuSans-6c" d="M 603 4863 
L 1178 4863 
L 1178 0 
L 603 0 
L 603 4863 
z
" transform="scale(0.015625)"/>
        <path id="DejaVuSans-75" d="M 544 1381 
L 544 3500 
L 1119 3500 
L 1119 1403 
Q 1119 906 1312 657 
Q 1506 409 1894 409 
Q 2359 409 2629 706 
Q 2900 1003 2900 1516 
L 2900 3500 
L 3475 3500 
L 3475 0 
L 2900 0 
L 2900 538 
Q 2691 219 2414 64 
Q 2138 -91 1772 -91 
Q 1169 -91 856 284 
Q 544 659 544 1381 
z
M 1991 3584 
L 1991 3584 
z
" transform="scale(0.015625)"/>
        <path id="DejaVuSans-72" d="M 2631 2963 
Q 2534 3019 2420 3045 
Q 2306 3072 2169 3072 
Q 1681 3072 1420 2755 
Q 1159 2438 1159 1844 
L 1159 0 
L 581 0 
L 581 3500 
L 1159 3500 
L 1159 2956 
Q 1341 3275 1631 3429 
Q 1922 3584 2338 3584 
Q 2397 3584 2469 3576 
Q 2541 3569 2628 3553 
L 2631 2963 
z
" transform="scale(0.015625)"/>
        <path id="DejaVuSans-42" d="M 1259 2228 
L 1259 519 
L 2272 519 
Q 2781 519 3026 730 
Q 3272 941 3272 1375 
Q 3272 1813 3026 2020 
Q 2781 2228 2272 2228 
L 1259 2228 
z
M 1259 4147 
L 1259 2741 
L 2194 2741 
Q 2656 2741 2882 2914 
Q 3109 3088 3109 3444 
Q 3109 3797 2882 3972 
Q 2656 4147 2194 4147 
L 1259 4147 
z
M 628 4666 
L 2241 4666 
Q 2963 4666 3353 4366 
Q 3744 4066 3744 3513 
Q 3744 3084 3544 2831 
Q 3344 2578 2956 2516 
Q 3422 2416 3680 2098 
Q 3938 1781 3938 1306 
Q 3938 681 3513 340 
Q 3088 0 2303 0 
L 628 0 
L 628 4666 
z
" transform="scale(0.015625)"/>
        <path id="DejaVuSans-5b" d="M 550 4863 
L 1875 4863 
L 1875 4416 
L 1125 4416 
L 1125 -397 
L 1875 -397 
L 1875 -844 
L 550 -844 
L 550 4863 
z
" transform="scale(0.015625)"/>
        <path id="DejaVuSans-25" d="M 4653 2053 
Q 4381 2053 4226 1822 
Q 4072 1591 4072 1178 
Q 4072 772 4226 539 
Q 4381 306 4653 306 
Q 4919 306 5073 539 
Q 5228 772 5228 1178 
Q 5228 1588 5073 1820 
Q 4919 2053 4653 2053 
z
M 4653 2450 
Q 5147 2450 5437 2106 
Q 5728 1763 5728 1178 
Q 5728 594 5436 251 
Q 5144 -91 4653 -91 
Q 4153 -91 3862 251 
Q 3572 594 3572 1178 
Q 3572 1766 3864 2108 
Q 4156 2450 4653 2450 
z
M 1428 4353 
Q 1159 4353 1004 4120 
Q 850 3888 850 3481 
Q 850 3069 1003 2837 
Q 1156 2606 1428 2606 
Q 1700 2606 1854 2837 
Q 2009 3069 2009 3481 
Q 2009 3884 1853 4118 
Q 1697 4353 1428 4353 
z
M 4250 4750 
L 4750 4750 
L 1831 -91 
L 1331 -91 
L 4250 4750 
z
M 1428 4750 
Q 1922 4750 2215 4408 
Q 2509 4066 2509 3481 
Q 2509 2891 2217 2550 
Q 1925 2209 1428 2209 
Q 931 2209 642 2551 
Q 353 2894 353 3481 
Q 353 4063 643 4406 
Q 934 4750 1428 4750 
z
" transform="scale(0.015625)"/>
        <path id="DejaVuSans-5d" d="M 1947 4863 
L 1947 -844 
L 622 -844 
L 622 -397 
L 1369 -397 
L 1369 4416 
L 622 4416 
L 622 4863 
L 1947 4863 
z
" transform="scale(0.015625)"/>
       </defs>
       <use xlink:href="#DejaVuSans-61"/>
       <use xlink:href="#DejaVuSans-73" x="61.279297"/>
       <use xlink:href="#DejaVuSans-73" x="113.378906"/>
       <use xlink:href="#DejaVuSans-69" x="165.478516"/>
       <use xlink:href="#DejaVuSans-67" x="193.261719"/>
       <use xlink:href="#DejaVuSans-6e" x="256.738281"/>
       <use xlink:href="#DejaVuSans-6d" x="320.117188"/>
       <use xlink:href="#DejaVuSans-65" x="417.529297"/>
       <use xlink:href="#DejaVuSans-6e" x="479.052734"/>
       <use xlink:href="#DejaVuSans-74" x="542.431641"/>
       <use xlink:href="#DejaVuSans-20" x="581.640625"/>
       <use xlink:href="#DejaVuSans-74" x="613.427734"/>
       <use xlink:href="#DejaVuSans-6f" x="652.636719"/>
       <use xlink:href="#DejaVuSans-20" x="713.818359"/>
       <use xlink:href="#DejaVuSans-63" x="745.605469"/>
       <use xlink:href="#DejaVuSans-6c" x="800.585938"/>
       <use xlink:href="#DejaVuSans-75" x="828.369141"/>
       <use xlink:href="#DejaVuSans-73" x="891.748047"/>
       <use xlink:href="#DejaVuSans-74" x="943.847656"/>
       <use xlink:href="#DejaVuSans-65" x="983.056641"/>
       <use xlink:href="#DejaVuSans-72" x="1044.580078"/>
       <use xlink:href="#DejaVuSans-20" x="1085.693359"/>
       <use xlink:href="#DejaVuSans-42" x="1117.480469"/>
       <use xlink:href="#DejaVuSans-20" x="1186.083984"/>
       <use xlink:href="#DejaVuSans-5b" x="1217.871094"/>
       <use xlink:href="#DejaVuSans-25" x="1256.884766"/>
       <use xlink:href="#DejaVuSans-5d" x="1351.904297"/>
      </g>
     </g>
    </g>
    <g id="matplotlib.axis_2"/>
    <g id="patch_4">
     <path d="M 224.709494 23.965625 
L 26.467188 23.965625 
" style="fill: none; stroke: #000000; stroke-width: 0.8; stroke-linejoin: miter; stroke-linecap: square"/>
    </g>
   </g>
   <g id="PathCollection_1">
    <path d="M 215.69848 76.837972 
C 217.629187 76.837972 219.481078 76.070893 220.846295 74.705677 
C 222.211511 73.34046 222.97859 71.488569 222.97859 69.557862 
C 222.97859 67.627154 222.211511 65.775263 220.846295 64.410047 
C 219.481078 63.04483 217.629187 62.277752 215.69848 62.277752 
C 213.767772 62.277752 211.915881 63.04483 210.550665 64.410047 
C 209.185448 65.775263 208.41837 67.627154 208.41837 69.557862 
C 208.41837 71.488569 209.185448 73.34046 210.550665 74.705677 
C 211.915881 76.070893 213.767772 76.837972 215.69848 76.837972 
z
" clip-path="url(#pf2e1d73184)" style="fill: #f17900; fill-opacity: 0.7"/>
    <path d="M 86.457447 75.842764 
C 88.124222 75.842764 89.722956 75.180547 90.901544 74.001959 
C 92.080132 72.823371 92.742349 71.224637 92.742349 69.557862 
C 92.742349 67.891086 92.080132 66.292353 90.901544 65.113764 
C 89.722956 63.935176 88.124222 63.272959 86.457447 63.272959 
C 84.790671 63.272959 83.191938 63.935176 82.01335 65.113764 
C 80.834761 66.292353 80.172544 67.891086 80.172544 69.557862 
C 80.172544 71.224637 80.834761 72.823371 82.01335 74.001959 
C 83.191938 75.180547 84.790671 75.842764 86.457447 75.842764 
z
" clip-path="url(#pf2e1d73184)" style="fill: #005ea8; fill-opacity: 0.7"/>
    <path d="M 35.478201 72.911964 
C 36.36772 72.911964 37.220925 72.558554 37.84991 71.92957 
C 38.478894 71.300586 38.832303 70.44738 38.832303 69.557862 
C 38.832303 68.668343 38.478894 67.815138 37.84991 67.186153 
C 37.220925 66.557169 36.36772 66.20376 35.478201 66.20376 
C 34.588683 66.20376 33.735478 66.557169 33.106493 67.186153 
C 32.477509 67.815138 32.124099 68.668343 32.124099 69.557862 
C 32.124099 70.44738 32.477509 71.300586 33.106493 71.92957 
C 33.735478 72.558554 34.588683 72.911964 35.478201 72.911964 
z
" clip-path="url(#pf2e1d73184)" style="fill: #005ea8; fill-opacity: 0.7"/>
    <path d="M 52.63591 74.532799 
C 53.955278 74.532799 55.220787 74.008608 56.153721 73.075674 
C 57.086656 72.142739 57.610847 70.87723 57.610847 69.557862 
C 57.610847 68.238493 57.086656 66.972984 56.153721 66.04005 
C 55.220787 65.107115 53.955278 64.582925 52.63591 64.582925 
C 51.316541 64.582925 50.051032 65.107115 49.118098 66.04005 
C 48.185163 66.972984 47.660972 68.238493 47.660972 69.557862 
C 47.660972 70.87723 48.185163 72.142739 49.118098 73.075674 
C 50.051032 74.008608 51.316541 74.532799 52.63591 74.532799 
z
" clip-path="url(#pf2e1d73184)" style="fill: #005ea8; fill-opacity: 0.7"/>
    <path d="M 114.089287 73.462987 
C 115.124938 73.462987 116.118311 73.051518 116.850627 72.319202 
C 117.582943 71.586886 117.994412 70.593513 117.994412 69.557862 
C 117.994412 68.52221 117.582943 67.528837 116.850627 66.796521 
C 116.118311 66.064205 115.124938 65.652737 114.089287 65.652737 
C 113.053636 65.652737 112.060263 66.064205 111.327947 66.796521 
C 110.595631 67.528837 110.184162 68.52221 110.184162 69.557862 
C 110.184162 70.593513 110.595631 71.586886 111.327947 72.319202 
C 112.060263 73.051518 113.053636 73.462987 114.089287 73.462987 
z
" clip-path="url(#pf2e1d73184)" style="fill: #005ea8; fill-opacity: 0.7"/>
    <path d="M 49.364685 72.949027 
C 50.264032 72.949027 51.126666 72.591712 51.7626 71.955777 
C 52.398535 71.319843 52.75585 70.457209 52.75585 69.557862 
C 52.75585 68.658514 52.398535 67.795881 51.7626 67.159946 
C 51.126666 66.524011 50.264032 66.166697 49.364685 66.166697 
C 48.465337 66.166697 47.602704 66.524011 46.966769 67.159946 
C 46.330834 67.795881 45.97352 68.658514 45.97352 69.557862 
C 45.97352 70.457209 46.330834 71.319843 46.966769 71.955777 
C 47.602704 72.591712 48.465337 72.949027 49.364685 72.949027 
z
" clip-path="url(#pf2e1d73184)" style="fill: #005ea8; fill-opacity: 0.7"/>
    <path d="M 197.779008 80.188008 
C 200.598155 80.188008 203.302218 79.067948 205.295656 77.07451 
C 207.289094 75.081071 208.409154 72.377009 208.409154 69.557862 
C 208.409154 66.738714 207.289094 64.034652 205.295656 62.041213 
C 203.302218 60.047775 200.598155 58.927716 197.779008 58.927716 
C 194.95986 58.927716 192.255798 60.047775 190.26236 62.041213 
C 188.268921 64.034652 187.148862 66.738714 187.148862 69.557862 
C 187.148862 72.377009 188.268921 75.081071 190.26236 77.07451 
C 192.255798 79.067948 194.95986 80.188008 197.779008 80.188008 
z
" clip-path="url(#pf2e1d73184)" style="fill: #f17900; fill-opacity: 0.7"/>
    <path d="M 168.82803 76.057862 
C 170.55185 76.057862 172.205299 75.372981 173.424224 74.154056 
C 174.643149 72.935131 175.32803 71.281682 175.32803 69.557862 
C 175.32803 67.834042 174.643149 66.180593 173.424224 64.961668 
C 172.205299 63.742743 170.55185 63.057862 168.82803 63.057862 
C 167.10421 63.057862 165.450761 63.742743 164.231836 64.961668 
C 163.012911 66.180593 162.32803 67.834042 162.32803 69.557862 
C 162.32803 71.281682 163.012911 72.935131 164.231836 74.154056 
C 165.450761 75.372981 167.10421 76.057862 168.82803 76.057862 
z
" clip-path="url(#pf2e1d73184)" style="fill: #f17900; fill-opacity: 0.7"/>
   </g>
   <g id="matplotlib.axis_3">
    <g id="xtick_7">
     <g id="line2d_7">
      <defs>
       <path id="m50f867dd47" d="M 0 0 
L 0 3.5 
" style="stroke: #000000; stroke-width: 0.8"/>
      </defs>
      <g>
       <use xlink:href="#m50f867dd47" x="35.478201" y="115.150098" style="stroke: #000000; stroke-width: 0.8"/>
      </g>
     </g>
     <g id="text_8">
      <!-- 0.00% -->
      <g transform="translate(25.948045 126.709161) scale(0.06 -0.06)">
       <use xlink:href="#DejaVuSans-30"/>
       <use xlink:href="#DejaVuSans-2e" x="63.623047"/>
       <use xlink:href="#DejaVuSans-30" x="95.410156"/>
       <use xlink:href="#DejaVuSans-30" x="159.033203"/>
       <use xlink:href="#DejaVuSans-25" x="222.65625"/>
      </g>
     </g>
    </g>
    <g id="xtick_8">
     <g id="line2d_8">
      <g>
       <use xlink:href="#m50f867dd47" x="71.522257" y="115.150098" style="stroke: #000000; stroke-width: 0.8"/>
      </g>
     </g>
     <g id="text_9">
      <!-- 0.00% -->
      <g transform="translate(61.992101 126.709161) scale(0.06 -0.06)">
       <use xlink:href="#DejaVuSans-30"/>
       <use xlink:href="#DejaVuSans-2e" x="63.623047"/>
       <use xlink:href="#DejaVuSans-30" x="95.410156"/>
       <use xlink:href="#DejaVuSans-30" x="159.033203"/>
       <use xlink:href="#DejaVuSans-25" x="222.65625"/>
      </g>
     </g>
    </g>
    <g id="xtick_9">
     <g id="line2d_9">
      <g>
       <use xlink:href="#m50f867dd47" x="107.566313" y="115.150098" style="stroke: #000000; stroke-width: 0.8"/>
      </g>
     </g>
     <g id="text_10">
      <!-- 0.00% -->
      <g transform="translate(98.036156 126.709161) scale(0.06 -0.06)">
       <use xlink:href="#DejaVuSans-30"/>
       <use xlink:href="#DejaVuSans-2e" x="63.623047"/>
       <use xlink:href="#DejaVuSans-30" x="95.410156"/>
       <use xlink:href="#DejaVuSans-30" x="159.033203"/>
       <use xlink:href="#DejaVuSans-25" x="222.65625"/>
      </g>
     </g>
    </g>
    <g id="xtick_10">
     <g id="line2d_10">
      <g>
       <use xlink:href="#m50f867dd47" x="143.610368" y="115.150098" style="stroke: #000000; stroke-width: 0.8"/>
      </g>
     </g>
     <g id="text_11">
      <!-- 0.00% -->
      <g transform="translate(134.080212 126.709161) scale(0.06 -0.06)">
       <use xlink:href="#DejaVuSans-30"/>
       <use xlink:href="#DejaVuSans-2e" x="63.623047"/>
       <use xlink:href="#DejaVuSans-30" x="95.410156"/>
       <use xlink:href="#DejaVuSans-30" x="159.033203"/>
       <use xlink:href="#DejaVuSans-25" x="222.65625"/>
      </g>
     </g>
    </g>
    <g id="xtick_11">
     <g id="line2d_11">
      <g>
       <use xlink:href="#m50f867dd47" x="179.654424" y="115.150098" style="stroke: #000000; stroke-width: 0.8"/>
      </g>
     </g>
     <g id="text_12">
      <!-- 0.00% -->
      <g transform="translate(170.124268 126.709161) scale(0.06 -0.06)">
       <use xlink:href="#DejaVuSans-30"/>
       <use xlink:href="#DejaVuSans-2e" x="63.623047"/>
       <use xlink:href="#DejaVuSans-30" x="95.410156"/>
       <use xlink:href="#DejaVuSans-30" x="159.033203"/>
       <use xlink:href="#DejaVuSans-25" x="222.65625"/>
      </g>
     </g>
    </g>
    <g id="xtick_12">
     <g id="line2d_12">
      <g>
       <use xlink:href="#m50f867dd47" x="215.69848" y="115.150098" style="stroke: #000000; stroke-width: 0.8"/>
      </g>
     </g>
     <g id="text_13">
      <!-- 100.00% -->
      <g transform="translate(202.350823 126.709161) scale(0.06 -0.06)">
       <use xlink:href="#DejaVuSans-31"/>
       <use xlink:href="#DejaVuSans-30" x="63.623047"/>
       <use xlink:href="#DejaVuSans-30" x="127.246094"/>
       <use xlink:href="#DejaVuSans-2e" x="190.869141"/>
       <use xlink:href="#DejaVuSans-30" x="222.65625"/>
       <use xlink:href="#DejaVuSans-30" x="286.279297"/>
       <use xlink:href="#DejaVuSans-25" x="349.902344"/>
      </g>
     </g>
    </g>
    <g id="text_14">
     <!-- assignment to cluster A [%] -->
     <g transform="translate(69.961466 138.035723) scale(0.08 -0.08)">
      <defs>
       <path id="DejaVuSans-41" d="M 2188 4044 
L 1331 1722 
L 3047 1722 
L 2188 4044 
z
M 1831 4666 
L 2547 4666 
L 4325 0 
L 3669 0 
L 3244 1197 
L 1141 1197 
L 716 0 
L 50 0 
L 1831 4666 
z
" transform="scale(0.015625)"/>
      </defs>
      <use xlink:href="#DejaVuSans-61"/>
      <use xlink:href="#DejaVuSans-73" x="61.279297"/>
      <use xlink:href="#DejaVuSans-73" x="113.378906"/>
      <use xlink:href="#DejaVuSans-69" x="165.478516"/>
      <use xlink:href="#DejaVuSans-67" x="193.261719"/>
      <use xlink:href="#DejaVuSans-6e" x="256.738281"/>
      <use xlink:href="#DejaVuSans-6d" x="320.117188"/>
      <use xlink:href="#DejaVuSans-65" x="417.529297"/>
      <use xlink:href="#DejaVuSans-6e" x="479.052734"/>
      <use xlink:href="#DejaVuSans-74" x="542.431641"/>
      <use xlink:href="#DejaVuSans-20" x="581.640625"/>
      <use xlink:href="#DejaVuSans-74" x="613.427734"/>
      <use xlink:href="#DejaVuSans-6f" x="652.636719"/>
      <use xlink:href="#DejaVuSans-20" x="713.818359"/>
      <use xlink:href="#DejaVuSans-63" x="745.605469"/>
      <use xlink:href="#DejaVuSans-6c" x="800.585938"/>
      <use xlink:href="#DejaVuSans-75" x="828.369141"/>
      <use xlink:href="#DejaVuSans-73" x="891.748047"/>
      <use xlink:href="#DejaVuSans-74" x="943.847656"/>
      <use xlink:href="#DejaVuSans-65" x="983.056641"/>
      <use xlink:href="#DejaVuSans-72" x="1044.580078"/>
      <use xlink:href="#DejaVuSans-20" x="1085.693359"/>
      <use xlink:href="#DejaVuSans-41" x="1117.480469"/>
      <use xlink:href="#DejaVuSans-20" x="1185.888672"/>
      <use xlink:href="#DejaVuSans-5b" x="1217.675781"/>
      <use xlink:href="#DejaVuSans-25" x="1256.689453"/>
      <use xlink:href="#DejaVuSans-5d" x="1351.708984"/>
     </g>
    </g>
   </g>
   <g id="matplotlib.axis_4">
    <g id="ytick_1">
     <g id="line2d_13">
      <defs>
       <path id="madb15521a4" d="M 0 0 
L -3.5 0 
" style="stroke: #000000; stroke-width: 0.8"/>
      </defs>
      <g>
       <use xlink:href="#madb15521a4" x="26.467188" y="102.715852" style="stroke: #000000; stroke-width: 0.8"/>
      </g>
     </g>
     <g id="text_15">
      <!-- −0.04 -->
      <g transform="translate(1.08 104.995383) scale(0.06 -0.06)">
       <defs>
        <path id="DejaVuSans-2212" d="M 678 2272 
L 4684 2272 
L 4684 1741 
L 678 1741 
L 678 2272 
z
" transform="scale(0.015625)"/>
       </defs>
       <use xlink:href="#DejaVuSans-2212"/>
       <use xlink:href="#DejaVuSans-30" x="83.789062"/>
       <use xlink:href="#DejaVuSans-2e" x="147.412109"/>
       <use xlink:href="#DejaVuSans-30" x="179.199219"/>
       <use xlink:href="#DejaVuSans-34" x="242.822266"/>
      </g>
     </g>
    </g>
    <g id="ytick_2">
     <g id="line2d_14">
      <g>
       <use xlink:href="#madb15521a4" x="26.467188" y="86.136857" style="stroke: #000000; stroke-width: 0.8"/>
      </g>
     </g>
     <g id="text_16">
      <!-- −0.02 -->
      <g transform="translate(1.08 88.416388) scale(0.06 -0.06)">
       <use xlink:href="#DejaVuSans-2212"/>
       <use xlink:href="#DejaVuSans-30" x="83.789062"/>
       <use xlink:href="#DejaVuSans-2e" x="147.412109"/>
       <use xlink:href="#DejaVuSans-30" x="179.199219"/>
       <use xlink:href="#DejaVuSans-32" x="242.822266"/>
      </g>
     </g>
    </g>
    <g id="ytick_3">
     <g id="line2d_15">
      <g>
       <use xlink:href="#madb15521a4" x="26.467188" y="69.557862" style="stroke: #000000; stroke-width: 0.8"/>
      </g>
     </g>
     <g id="text_17">
      <!-- 0.00 -->
      <g transform="translate(6.107813 71.837393) scale(0.06 -0.06)">
       <use xlink:href="#DejaVuSans-30"/>
       <use xlink:href="#DejaVuSans-2e" x="63.623047"/>
       <use xlink:href="#DejaVuSans-30" x="95.410156"/>
       <use xlink:href="#DejaVuSans-30" x="159.033203"/>
      </g>
     </g>
    </g>
    <g id="ytick_4">
     <g id="line2d_16">
      <g>
       <use xlink:href="#madb15521a4" x="26.467188" y="52.978867" style="stroke: #000000; stroke-width: 0.8"/>
      </g>
     </g>
     <g id="text_18">
      <!-- 0.02 -->
      <g transform="translate(6.107813 55.258398) scale(0.06 -0.06)">
       <use xlink:href="#DejaVuSans-30"/>
       <use xlink:href="#DejaVuSans-2e" x="63.623047"/>
       <use xlink:href="#DejaVuSans-30" x="95.410156"/>
       <use xlink:href="#DejaVuSans-32" x="159.033203"/>
      </g>
     </g>
    </g>
    <g id="ytick_5">
     <g id="line2d_17">
      <g>
       <use xlink:href="#madb15521a4" x="26.467188" y="36.399871" style="stroke: #000000; stroke-width: 0.8"/>
      </g>
     </g>
     <g id="text_19">
      <!-- 0.04 -->
      <g transform="translate(6.107813 38.679403) scale(0.06 -0.06)">
       <use xlink:href="#DejaVuSans-30"/>
       <use xlink:href="#DejaVuSans-2e" x="63.623047"/>
       <use xlink:href="#DejaVuSans-30" x="95.410156"/>
       <use xlink:href="#DejaVuSans-34" x="159.033203"/>
      </g>
     </g>
    </g>
   </g>
   <g id="patch_5">
    <path d="M 26.467188 115.150098 
L 26.467188 23.965625 
" style="fill: none; stroke: #000000; stroke-width: 0.8; stroke-linejoin: miter; stroke-linecap: square"/>
   </g>
   <g id="patch_6">
    <path d="M 224.709494 115.150098 
L 224.709494 23.965625 
" style="fill: none; stroke: #000000; stroke-width: 0.8; stroke-linejoin: miter; stroke-linecap: square"/>
   </g>
   <g id="patch_7">
    <path d="M 26.467188 115.150098 
L 224.709494 115.150098 
" style="fill: none; stroke: #000000; stroke-width: 0.8; stroke-linejoin: miter; stroke-linecap: square"/>
   </g>
   <g id="patch_8">
    <path d="M 26.467188 23.965625 
L 224.709494 23.965625 
" style="fill: none; stroke: #000000; stroke-width: 0.8; stroke-linejoin: miter; stroke-linecap: square"/>
   </g>
  </g>
 </g>
 <defs>
  <clipPath id="pf2e1d73184">
   <rect x="26.467188" y="23.965625" width="198.242306" height="91.184473"/>
  </clipPath>
 </defs>
</svg>
